<?xml version="1.0" encoding="UTF-8"?><svg id="Layer_1" xmlns="http://www.w3.org/2000/svg" xmlns:xlink="http://www.w3.org/1999/xlink" viewBox="0 0 250.78 89.33"><defs><style>.cls-1{fill:url(#New_Gradient_Swatch_copy);}.cls-2{fill:url(#linear-gradient);}.cls-3{fill:#e83d96;}.cls-4{fill:#664ea0;}.cls-5{fill:#221c40;}.cls-6{fill:url(#New_Gradient_Swatch_copy-3);}.cls-7{fill:url(#New_Gradient_Swatch_copy-2);}.cls-8{fill:url(#linear-gradient-3);}.cls-9{fill:url(#linear-gradient-2);}</style><linearGradient id="linear-gradient" x1="210.25" y1="44.66" x2="210.25" y2="28.91" gradientUnits="userSpaceOnUse"><stop offset="0" stop-color="#e83d96"/><stop offset=".12" stop-color="#e13d96"/><stop offset=".3" stop-color="#ce4097"/><stop offset=".51" stop-color="#af449a"/><stop offset=".74" stop-color="#84499d"/><stop offset=".89" stop-color="#664ea0"/></linearGradient><linearGradient id="New_Gradient_Swatch_copy" x1="214.16" y1="42.59" x2="214.16" y2="0" gradientUnits="userSpaceOnUse"><stop offset="0" stop-color="#e83d96"/><stop offset=".13" stop-color="#e13d96"/><stop offset=".3" stop-color="#d04097"/><stop offset=".49" stop-color="#b44399"/><stop offset=".7" stop-color="#8e489c"/><stop offset=".89" stop-color="#664ea0"/></linearGradient><linearGradient id="linear-gradient-2" x1="35.03" y1="44.66" x2="35.03" y2="4.77" gradientUnits="userSpaceOnUse"><stop offset="0" stop-color="#e83d96"/><stop offset=".21" stop-color="#c14198"/><stop offset=".52" stop-color="#90489c"/><stop offset=".76" stop-color="#714c9f"/><stop offset=".89" stop-color="#664ea0"/></linearGradient><linearGradient id="New_Gradient_Swatch_copy-2" x1="30.53" y1="32.81" x2="30.53" y2=".17" xlink:href="#New_Gradient_Swatch_copy"/><linearGradient id="New_Gradient_Swatch_copy-3" x1="125.39" y1="33.81" x2="125.39" y2="0" xlink:href="#New_Gradient_Swatch_copy"/><linearGradient id="linear-gradient-3" x1="121.86" y1="44.65" x2="121.86" y2="18.35" gradientUnits="userSpaceOnUse"><stop offset="0" stop-color="#e83d96"/><stop offset=".27" stop-color="#bc4299"/><stop offset=".69" stop-color="#7e4a9e"/><stop offset=".89" stop-color="#664ea0"/></linearGradient></defs><path class="cls-2" d="m232.97,44.66h0s-37.19,0-37.19,0l-9.67-13.44c4.47-1.64,9.34-2.57,15.11-2.25,21.15,1.17,25.2,10.44,33.16,13.62l-1.42,2.07Z"/><path class="cls-1" d="m247.46,23.63c-.05.06-.1.14-.15.2h0l-12.92,18.76c-7.96-3.18-12.02-12.45-33.16-13.62-5.77-.32-10.64.61-15.11,2.25l-4.95-6.88s0,0,0-.02c-.08-.11-.17-.22-.25-.34-.06-.08-.11-.16-.16-.23h0c-2.84-4.18-3.33-9.27-1.73-13.7.38-1.07.88-2.09,1.51-3.05.61-.95,1.32-1.83,2.15-2.64,0,0,0,0,0,0,.56-.55,1.17-1.06,1.83-1.53.77-.55,1.58-1.01,2.41-1.4,0,0,0,0,0,0,.92-.43,1.87-.75,2.83-.98,5.85-1.4,12.21.78,15.91,5.98.05.06.1.14.14.2h0l8.42,11.86,8.23-11.67s.01,0,.01,0c.08-.11.16-.23.24-.35.05-.08.11-.16.17-.23h0s0,0,0,0c2.97-4.05,7.59-6.21,12.28-6.21,1.13,0,2.26.12,3.37.38,1.09.25,2.16.62,3.19,1.12,0,0,0,0,.01,0,.7.33,1.38.74,2.04,1.19.77.54,1.48,1.14,2.12,1.78,0,0,0,0,0,0,.7.71,1.33,1.49,1.86,2.31,3.26,4.98,3.34,11.64-.32,16.83Z"/><path class="cls-5" d="m70.06,44.66c0,1.16-.05,2.32-.14,3.46-.03.35-.06.69-.1,1.04-.18,1.69-.45,3.35-.81,4.98-.14.66-.3,1.3-.47,1.95-.34,1.28-.74,2.54-1.2,3.77h0c-.09.24-.18.47-.27.71-.09.23-.18.47-.28.7-.03.07-.05.13-.08.2,0,.02-.02.05-.03.07-.04.09-.07.18-.11.27-.71,1.67-1.52,3.3-2.42,4.86-.25.44-.52.88-.79,1.31-.07.11-.14.23-.21.34-.03.06-.07.11-.1.16-.03.04-.05.09-.08.13-.66,1.02-1.36,2.02-2.11,2.98-.51.67-1.04,1.32-1.59,1.96-.9,1.04-1.84,2.03-2.82,2.98-.7.67-1.42,1.32-2.16,1.95-1.94,1.65-4.03,3.13-6.24,4.42-1.2.71-2.44,1.36-3.71,1.95-2.94,1.37-6.04,2.43-9.29,3.13h0c-3.06.67-6.23,1.02-9.49,1.02-2.78,0-5.5-.26-8.14-.74-3.73-.69-7.29-1.84-10.63-3.4-.03-.01-.07-.03-.1-.05,0,0,0,0,0,0-1.18-.55-2.33-1.15-3.45-1.81-.05-.03-.11-.06-.16-.09-1.06-.62-2.09-1.28-3.09-1.98v-36.26h70.06Z"/><path class="cls-5" d="m157.63,80.83s0,0,0,0c-.12.66-.31,1.29-.55,1.9-.02.06-.05.12-.07.17-.04.09-.08.17-.11.26-.08.17-.16.34-.25.5,0,0,0,0,0,0-.04.08-.09.16-.13.24-.02.04-.05.09-.08.13-.03.06-.07.12-.11.18-.13.21-.27.42-.42.62-1.51,2.09-3.79,3.56-6.43,4.01-.32.06-.64.09-.97.12-.24.02-.47.02-.71.02h-23.51c-1.53,0-3.05-.1-4.55-.3-4.21-.55-8.27-1.86-11.97-3.86-1.09-.58-2.14-1.23-3.16-1.93l-.02-.02h0c-1.87-1.28-3.62-2.76-5.22-4.42h0c-.09-.09-.18-.19-.27-.28-.09-.09-.18-.19-.27-.29-.41-.45-.82-.91-1.22-1.38-.32-.37-.63-.74-.93-1.12-.48-.61-.96-1.23-1.41-1.86-.46-.64-.91-1.29-1.34-1.96-.63-.97-1.22-1.96-1.79-2.98-.35-.63-.68-1.28-1.01-1.93-.78-1.58-1.48-3.21-2.1-4.89-.04-.12-.09-.24-.13-.36-.04-.12-.09-.24-.13-.36-.08-.24-.17-.49-.25-.73-.06-.16-.11-.33-.16-.49h0c-.39-1.24-.75-2.49-1.05-3.77h0s0-.02,0-.02l-.02-.1c-.14-.59-.27-1.2-.39-1.8v-.02s0,0,0,0c-.31-1.58-.55-3.18-.71-4.81-.05-.47-.09-.94-.12-1.42-.08-1.07-.12-2.16-.13-3.25h71.87c0,.57-.06,1.14-.17,1.68h0c-.08.43-.18.85-.31,1.25h0s0,.02-.01.04c-.07.21-.15.42-.23.62-.03.08-.06.15-.1.23,0,0,0,.02-.01.03-.02.04-.03.08-.05.12-.04.09-.08.18-.13.27,0,0,0,.02-.01.02-.05.1-.1.21-.16.31-.06.11-.11.21-.17.31-.28.47-.59.92-.94,1.34-.62.76-1.36,1.42-2.17,1.96-.85.57-1.8,1.01-2.81,1.3,0,0,0,0,0,0-.1.03-.19.05-.29.08-.17.04-.35.08-.53.12-.04,0-.08.02-.12.02,0,0,0,0-.01,0-.05,0-.1.02-.15.02,0,0-.01,0-.02,0,0,0-.02,0-.03,0,0,0,0,0,0,0,0,0,0,0,0,0-.06,0-.12.02-.18.03-.03,0-.07.01-.11.01-.03,0-.07,0-.1.01,0,0-.02,0-.03,0-.09.01-.17.02-.26.03-.21.02-.42.03-.64.04h-.07s-.19,0-.19,0l-18.7.15c-.09,0-.18,0-.28,0-.02,0-.04,0-.07,0t0,0h0s-.01,0-.02,0c-.08,0-.15,0-.22.01-.01,0-.03,0-.04,0,0,0-.02,0-.02,0-.05,0-.09,0-.14.01,0,0-.01,0-.02,0-.05,0-.09,0-.14.02-.01,0-.02,0-.04,0-.04,0-.08,0-.12.02,0,0-.02,0-.02,0-.04,0-.07.01-.11.02-.08.01-.16.03-.24.04-.09.02-.18.04-.28.06,0,0-.02,0-.03,0-.09.02-.17.04-.26.07h0c-.09.03-.18.05-.26.08-.01,0-.03,0-.04.01-.08.03-.16.05-.23.08-.07.03-.14.06-.21.08,0,0-.01,0-.02,0-.03.01-.06.02-.09.04-.04.02-.08.04-.13.06-.03.01-.07.03-.1.05-.01,0-.03.01-.05.02-.04.02-.08.04-.12.06-.04.02-.08.04-.13.07-.03.02-.07.03-.1.05,0,0-.01,0-.02.01-.03.01-.06.03-.08.05-.15.09-.3.18-.45.28-.08.05-.15.11-.23.16h0s0,0,0,0c-1.25.92-2.19,2.24-2.64,3.77-.18.62-.29,1.27-.29,1.95,0,.03,0,.07,0,.1,0,1.82.67,3.49,1.79,4.76.11.12.22.24.33.36.68.68,1.49,1.22,2.4,1.59h0c.83.34,1.74.53,2.69.53h.03l18.69-.15c.06,0,.13,0,.19,0h0c.09,0,.17,0,.26,0,.99.04,1.94.23,2.83.54h0c1.29.45,2.45,1.15,3.44,2.05.55.51,1.05,1.07,1.48,1.69.06.09.12.18.18.27.35.53.65,1.11.89,1.71.17.41.31.84.42,1.28.08.29.14.59.18.89h0c.06.35.09.7.11,1.06,0,.17.01.34.01.52,0,.63-.06,1.24-.17,1.83h0Z"/><path class="cls-5" d="m249.88,79.29c-.17.48-.37.95-.59,1.41-.27.57-.57,1.11-.91,1.64-.07.1-.14.21-.21.31-.54.79-1.15,1.54-1.85,2.23-.03.03-.06.07-.1.1,0,0,0,0,0,0-.56.55-1.17,1.06-1.83,1.53-.16.11-.32.22-.48.33-.62.41-1.27.77-1.93,1.07,0,0,0,0-.01,0-.92.43-1.87.76-2.83.98-3.41.82-7,.42-10.13-1.09h0c-.1-.05-.21-.1-.31-.15-.05-.02-.1-.05-.15-.08-.09-.05-.18-.09-.27-.14-.06-.03-.12-.07-.18-.1-.02,0-.04-.02-.05-.03-.07-.04-.14-.08-.21-.12-.02-.01-.05-.03-.07-.04-.11-.07-.23-.14-.34-.21-.13-.08-.25-.16-.38-.25-.09-.06-.19-.13-.28-.2-.05-.03-.09-.07-.14-.1-.09-.07-.18-.14-.27-.21-.05-.03-.09-.07-.14-.11-.09-.07-.18-.14-.27-.22h0c-1.02-.84-1.94-1.82-2.73-2.94-.05-.07-.1-.14-.15-.21h0l-.04-.06-1.42-1.96-1.61-2.22h0l-1.41-1.95-2.17-2.98-1.42-1.96-.54-.75-.52.75-1.35,1.96-4.93,7.15-1.23,1.78s-.01,0-.02.01c-.04.06-.07.11-.11.16-.04.06-.08.12-.13.18-.06.08-.11.16-.17.23h0c-1.57,2.15-3.6,3.76-5.86,4.8-2.02.93-4.21,1.41-6.42,1.41-1.13,0-2.26-.12-3.37-.38-1.03-.23-2.04-.58-3.02-1.04-.06-.03-.12-.05-.18-.08,0,0,0,0,0,0-.7-.33-1.38-.73-2.05-1.19-.76-.53-1.44-1.11-2.07-1.74h0s-.03-.03-.04-.04h0s0,0,0,0c0,0,0,0,0,0-.09-.09-.18-.19-.27-.28-.01-.01-.02-.03-.03-.04-.08-.08-.15-.16-.23-.25-.07-.08-.14-.15-.2-.23-.07-.08-.14-.16-.2-.24-.08-.09-.15-.19-.23-.28-.05-.07-.1-.13-.15-.2-.05-.06-.09-.12-.14-.19-.05-.06-.09-.12-.13-.19-.1-.14-.19-.27-.28-.41-.83-1.28-1.46-2.66-1.87-4.1-.14-.5-.25-1-.34-1.51-.22-1.25-.28-2.54-.17-3.81.03-.4.08-.79.15-1.19h0c.18-1.11.49-2.21.93-3.27.27-.67.6-1.32.98-1.96.2-.34.42-.67.65-1,.05-.07.09-.13.14-.2l2.68-3.92,1.15-1.68,2.77-4.05h0s.13-.2.13-.2l.06-.09h0s1.27-1.86,1.27-1.86l2.81-4.11,1.34-1.96,2-2.93h37.19l2.12,2.93.14.2h0s.33.46.33.46h0s.93,1.29.93,1.29l3.34,4.61,1.41,1.95,2.73,3.77,1.41,1.95,2.32,3.2s0,.01,0,.02c.08.11.17.22.25.34.05.08.11.15.15.24h0c.24.35.46.71.66,1.07,0,0,0,0,0,0,.36.63.67,1.29.93,1.95,0,0,0,0,0,0,.38.97.66,1.97.83,2.98.11.65.18,1.3.2,1.96.08,1.95-.23,3.9-.89,5.74Z"/><path class="cls-3" d="m48.05,82.91c-1.2.71-2.44,1.36-3.71,1.95H6.86c-.05-.01-.11-.03-.16-.05,0,0,0,0,0,0l-3.61-1.9h44.97Z"/><path class="cls-4" d="m185.64,77.51c0,.54-.44.97-.97.97h-5.01c-.15,0-.28-.03-.41-.09-.14-.5-.25-1-.34-1.51.18-.21.45-.35.75-.35h5.01c.54,0,.97.44.97.97Z"/><path class="cls-3" d="m86.88,54.14h63.65c-.79.23-1.62.36-2.48.38h-.07s-.19,0-.19,0l-18.69.15c-1.61,0-3.1.53-4.3,1.42h-37.5l-.42-1.95Z"/><path class="cls-3" d="m188.37,55.51s-.03.06-.05.09c-.04.07-.09.14-.15.19l.13-.19.06-.09Z"/><path class="cls-3" d="m208.29,56.09h-9.98c-.54,0-.97-.44-.97-.97s.44-.97.97-.97h9.98c.54,0,.97.44.97.97s-.44.97-.97.97Z"/><path class="cls-3" d="m0,78.49h18.9c.54,0,.97-.44.97-.97s-.44-.97-.97-.97H0v1.95Z"/><path class="cls-4" d="m40.28,78.48h-7.21c-.54,0-.97-.44-.97-.97s.44-.97.97-.97h7.21c.54,0,.97.44.97.97s-.44.97-.97.97Z"/><path class="cls-4" d="m116.88,77.51c0,.54-.43.97-.97.97h-16.56c-.18-.19-.36-.38-.54-.57-.41-.45-.82-.91-1.22-1.38h18.32c.54,0,.97.43.97.97Z"/><path class="cls-3" d="m104.58,82.91h52.43c-.29.69-.66,1.35-1.1,1.95h-48.15l-3.19-1.95Z"/><path class="cls-3" d="m198.26,83.88c0,.54-.44.97-.97.97h-14.25s-.03-.03-.04-.04c0,0,0,0,0,0-.59-.59-1.12-1.23-1.59-1.9h15.89c.54,0,.97.43.97.97Z"/><path class="cls-4" d="m64.16,66.66c-.38.66-.77,1.31-1.19,1.95h-26.3c-.54,0-.97-.43-.97-.97s.43-.97.97-.97h27.48Z"/><path class="cls-3" d="m0,68.61h8.94c.54,0,.97-.43.97-.97s-.43-.97-.97-.97H0v1.95Z"/><path class="cls-3" d="m107.01,67.64c0,.54-.44.97-.97.97h-13.91c-.35-.63-.68-1.28-1.01-1.93.07-.01.14-.02.21-.02h14.71c.54,0,.97.44.97.98Z"/><path class="cls-4" d="m126.38,68.61h-6.47c-.54,0-.97-.43-.97-.97s.44-.97.97-.97h3.74c.11.12.22.24.33.36.68.68,1.49,1.22,2.4,1.59Z"/><path class="cls-3" d="m245.41,61.8h-19.48c-.54,0-.97-.44-.97-.97s.44-.97.97-.97h18.06l1.41,1.95Z"/><path class="cls-4" d="m221.19,61.8h-14.48c-.54,0-.97-.44-.97-.97s.44-.97.97-.97h14.48c.54,0,.97.44.97.97s-.44.97-.97.97Z"/><path class="cls-3" d="m195.7,60.83c0,.54-.44.97-.97.97h-9.8c-.26,0-.49-.1-.67-.27l1.15-1.68h9.32c.54,0,.97.44.97.97Z"/><path class="cls-4" d="m49.64,59.85h17.71c-.24.66-.5,1.3-.77,1.95h-16.94c-.54,0-.97-.44-.97-.97s.43-.97.97-.97Z"/><path class="cls-4" d="m109.02,60.83c0,.54-.44.97-.97.97h-19.03c-.24-.64-.46-1.29-.67-1.95h19.7c.54,0,.97.43.97.97Z"/><path class="cls-3" d="m19.87,60.83c0,.54-.44.97-.97.97H0v-1.95h18.9c.54,0,.97.43.97.97Z"/><path class="cls-4" d="m44.89,55.11c0,.54-.44.97-.97.97H0v-1.95h43.91c.54,0,.97.44.97.97Z"/><path class="cls-3" d="m58.36,56.09h-5.42c-.54,0-.97-.44-.97-.97s.44-.97.97-.97h5.42c.54,0,.97.44.97.97s-.44.97-.97.97Z"/><path class="cls-3" d="m12.57,49.54H1.22c-.54,0-.97-.44-.97-.97s.44-.97.97-.97h11.35c.54,0,.97.44.97.97s-.44.97-.97.97Z"/><path class="cls-3" d="m29.74,49.54h-6.27c-.54,0-.97-.44-.97-.97s.44-.97.97-.97h6.27c.54,0,.97.44.97.97s-.44.97-.97.97Z"/><path class="cls-3" d="m115.91,49.54h-5.51c-.54,0-.97-.44-.97-.97s.44-.97.97-.97h5.51c.54,0,.97.44.97.97s-.44.97-.97.97Z"/><path class="cls-3" d="m157.32,47.59c-.07.22-.15.44-.24.66-.18.45-.39.88-.63,1.29h-25.34c-.54,0-.97-.44-.97-.97s.44-.97.97-.97h26.21Z"/><path class="cls-3" d="m236.5,49.53s-.08,0-.12,0h-22.86c-.54,0-.97-.44-.97-.97s.44-.98.97-.98h21.57l.14.2h0s.33.46.33.46h0s.93,1.29.93,1.29Z"/><path class="cls-3" d="m250.07,77.51c0,.54-.44.97-.97.97h-29.09l-1.41-1.95h30.5c.54,0,.97.43.97.97Z"/><path class="cls-3" d="m238.49,86.85c0,.54-.44.97-.97.97h-8.51c-1.08-.52-2.1-1.17-3.05-1.95h11.55c.54,0,.97.44.97.97Z"/><path class="cls-4" d="m241.26,56.09h-3.75c-.54,0-.97-.43-.97-.97s.44-.97.97-.97h2.33l1.41,1.95Z"/><path class="cls-3" d="m32.1,68.61h-13.07c-.54,0-.97-.44-.97-.97s.44-.97.97-.97h13.07c.54,0,.97.44.97.97s-.44.97-.97.97Z"/><path class="cls-3" d="m69.92,48.12c-.03.35-.06.69-.1,1.04-.18.23-.46.38-.77.38h-32.38c-.54,0-.97-.44-.97-.98s.44-.97.97-.97h32.38c.38,0,.7.22.87.53Z"/><path class="cls-4" d="m105.55,48.57c0,.54-.44.97-.97.97h-17.8c-.23,0-.44-.08-.6-.21-.05-.47-.09-.94-.12-1.42.18-.2.44-.32.72-.32h17.8c.54,0,.97.44.97.98Z"/><path class="cls-4" d="m209.95,49.54h-6.21c-.54,0-.97-.44-.97-.97s.44-.97.97-.97h6.21c.54,0,.97.44.97.97s-.44.97-.97.97Z"/><path class="cls-3" d="m233.91,56.09h-17.9c-.54,0-.97-.44-.97-.97s.44-.97.97-.97h17.9c.54,0,.97.44.97.97s-.44.97-.97.97Z"/><path class="cls-3" d="m208.29,78.48h-9.98c-.54,0-.97-.44-.97-.97s.44-.97.97-.97h9.98c.54,0,.97.44.97.97s-.44.97-.97.97Z"/><path class="cls-3" d="m157.78,78.48h-9.89c-.54,0-.97-.44-.97-.97s.44-.97.97-.97h9.6c.08.29.14.59.18.89h0c.06.35.09.7.11,1.06Z"/><path class="cls-9" d="m70.06,44.66H0V8.24c1.85-1.3,3.8-2.46,5.84-3.47,6.23,12.65,16.88,29.35,29.19,27.96,9.62-1.09,14.7-11.94,20.18-21.25,9.12,8.15,14.85,20,14.85,33.18Z"/><path class="cls-7" d="m55.21,11.48c-5.48,9.31-10.56,20.16-20.18,21.25-12.3,1.4-22.95-15.31-29.19-27.96C11.79,1.82,18.48.17,25.57.17c11.38,0,21.77,4.28,29.64,11.31Z"/><path class="cls-6" d="m157.8,10.02c0,.62-.06,1.24-.17,1.83h0c-.12.66-.31,1.3-.55,1.91-1.48,3.68-5.08,6.27-9.29,6.27h-.16l-18.53.15c-4,0-7.24,3.24-7.24,7.23,0,1.47.44,2.84,1.2,3.99-4.1,1.15-7.83,2.06-10.69,2.37-6.95.74-14.48-8.16-19.39-15.42,1.12-1.87,2.36-3.66,3.7-5.34.14-.18.28-.35.43-.52C103.65,4.53,113.48,0,123.79,0h23.72s0,0,0,0c.09,0,.18,0,.28,0,.06,0,.13,0,.19,0h0c3.32.06,6.25,1.75,8.03,4.29.43.61.79,1.27,1.07,1.98.28.69.48,1.41.6,2.16,0,0,0,0,0,0,.08.51.13,1.03.13,1.57Z"/><path class="cls-8" d="m157.8,44.5c0,.05,0,.1,0,.15h-71.88c0-.15,0-.29,0-.44,0-9.53,2.59-18.41,7.05-25.86,4.92,7.26,12.44,16.16,19.39,15.42,2.87-.31,6.59-1.22,10.69-2.37.27.41.58.78.92,1.13,1.31,1.31,3.12,2.12,5.12,2.12l18.7-.15c.06,0,.13,0,.19,0h0c3.32.06,6.25,1.75,8.03,4.29.43.61.79,1.27,1.07,1.98.28.69.48,1.41.6,2.16,0,0,0,0,0,0,.08.51.13,1.03.13,1.57Z"/><path class="cls-3" d="m196.15,72.57c0,.54-.44.98-.98.98h-15.6c-.36,0-.67-.19-.84-.48.03-.4.08-.79.15-1.19h0c.18-.18.42-.29.69-.29h15.6c.54,0,.98.44.98.98Z"/><path class="cls-3" d="m250.77,73.55h-14.23c-.54,0-.98-.44-.98-.98s.44-.98.98-.98h14.03c.11.65.18,1.3.2,1.96Z"/><path class="cls-4" d="m232.41,73.55h-6.21c-.54,0-.97-.44-.97-.97s.44-.97.97-.97h6.21c.54,0,.97.44.97.97s-.44.97-.97.97Z"/><path class="cls-3" d="m200.82,71.6h13.13l-1.35,1.96h-11.78c-.54,0-.98-.44-.98-.98s.44-.98.98-.98Z"/><path class="cls-3" d="m220.36,72.57c0,.54-.44.98-.98.98h-2.96l-1.42-1.96h4.38c.54,0,.98.44.98.98Z"/><path class="cls-4" d="m248.17,82.66h-9.27c-.54,0-.98-.44-.98-.98s.44-.98.98-.98h10.39l-1.12,1.96Z"/><path class="cls-4" d="m228.87,81.68c0,.54-.44.98-.98.98h-4.85l-1.42-1.96h6.27c.54,0,.98.44.98.98Z"/><path class="cls-4" d="m246.32,84.89s-.06.07-.1.1c0,0,0,0,0,0-.56.55-1.17,1.06-1.83,1.53-.16.11-.32.22-.48.33h-1.17c-.54,0-.98-.44-.98-.98s.44-.98.98-.98h3.58Z"/><path class="cls-3" d="m200.14,87.88c-2.02.93-4.21,1.41-6.42,1.41-1.13,0-2.26-.12-3.37-.38-1.03-.23-2.04-.58-3.02-1.04h12.81Z"/><path class="cls-4" d="m207.66,80.71l-1.23,1.78s-.01,0-.02.01c-.04.06-.07.11-.11.16h-4.56c-.54,0-.98-.44-.98-.98s.44-.98.98-.98h5.92Z"/><path class="cls-4" d="m193.9,54.63c0,.54-.44.97-.98.97h-4.61l.06-.09h0s1.27-1.86,1.27-1.86h3.29c.54,0,.98.44.98.97Z"/><path class="cls-3" d="m198.31,48.57c0,.54-.44.98-.98.98h-4.89l1.34-1.96h3.55c.54,0,.98.44.98.98Z"/><path class="cls-4" d="m224.61,67.64c0,.54-.44.98-.98.98h-43.83c.27-.67.6-1.32.98-1.96h42.85c.54,0,.98.44.98.98Z"/><path class="cls-4" d="m249.75,68.62h-18.05c-.54,0-.98-.44-.98-.98s.44-.98.98-.98h17.12s0,0,0,0c.36.63.67,1.29.93,1.95,0,0,0,0,0,0Z"/><path class="cls-3" d="m122.15,59.85c-.18.62-.29,1.27-.29,1.95h-7.36c-.54,0-.97-.44-.97-.97s.44-.97.97-.97h7.65Z"/><path class="cls-4" d="m156.01,73.29c.06.09.12.18.18.27h-22.38c-.54,0-.98-.44-.98-.98s.44-.98.98-.98h20.72c.55.51,1.05,1.07,1.48,1.69Z"/><path class="cls-3" d="m123.63,72.57c0,.54-.44.98-.98.98h-27.4c-.46-.64-.91-1.29-1.34-1.96h28.74c.54,0,.98.44.98.98Z"/><path class="cls-3" d="m131.86,78.49h-10.01c-.54,0-.98-.44-.98-.98s.44-.98.98-.98h10.01c.54,0,.98.44.98.98s-.44.98-.98.98Z"/><path class="cls-3" d="m137.49,89.01h-13.21c-1.53,0-3.05-.1-4.55-.3.13-.39.5-.68.93-.68h15.84c.54,0,.98.44.98.98Z"/><path class="cls-4" d="m149.47,88.87c-.32.06-.64.09-.97.12-.24.02-.47.02-.71.02h-6.16c0-.54.44-.98.98-.98l5.89-.02h0c.5,0,.91.37.97.86Z"/><path class="cls-3" d="m60.87,71.6c-.51.67-1.04,1.32-1.59,1.96h-15.49c-.54,0-.98-.44-.98-.98s.44-.98.98-.98h17.09Z"/><path class="cls-4" d="m35.06,87.98c-3.06.67-6.23,1.02-9.49,1.02-2.78,0-5.5-.26-8.14-.74.17-.14.39-.23.62-.23l17.01-.05Z"/><path class="cls-3" d="m56.45,76.54c-.7.67-1.42,1.32-2.16,1.95h-3.39c-.54,0-.97-.44-.97-.97s.44-.97.97-.97h5.55Z"/><path class="cls-4" d="m5.94,72.57c0,.54-.44.98-.98.98H0v-1.96h4.96c.54,0,.98.44.98.98Z"/><path class="cls-3" d="m151.07,69.55l-21.17.06h0c-.35,0-.66-.19-.83-.46h.03l18.69-.15c.06,0,.13,0,.19,0h0c.09,0,.17,0,.26,0,.99.04,1.94.23,2.83.54Z"/><path class="cls-4" d="m155.51,50.88c-.62.76-1.36,1.42-2.17,1.96h-3.02s0,0,0,0c-.54,0-.98-.44-.98-.98,0-.54.44-.98.98-.98h5.19Z"/><path class="cls-4" d="m69.01,54.14c-.14.66-.3,1.3-.47,1.95h-3.91c-.54,0-.97-.44-.97-.97s.44-.97.97-.97h4.38Z"/><path class="cls-3" d="m34.61,73.55H13.34c-.54,0-.97-.44-.97-.97s.44-.97.97-.97h21.27c.54,0,.97.44.97.97s-.44.97-.97.97Z"/><path class="cls-4" d="m44.04,61.8h-14.73c-.54,0-.97-.44-.97-.97s.44-.97.97-.97h14.73c.54,0,.97.44.97.97s-.44.97-.97.97Z"/></svg>